PathFileType	4	(X/Y/Z)	53_2_9_p0_0-264_filt_butterworth.trc
DataRate	CameraRate	NumFrames	NumMarkers	Units	OrigDataRate	OrigDataStartFrame	OrigNumFrames
45.0	45.0	6	27	m	45.0	231	264
Frame#	Time	RHip			RKnee			RAnkle			RBigToe			RSmallToe			RHeel			LHip			LKnee			LAnkle			LBigToe			LSmallToe			LHeel			Neck			Head			Nose			RShoulder			RElbow			RWrist			RThumb			RIndex			RPinky			LShoulder			LElbow			LWrist			LThumb			LIndex			LPinky			
		X1	Y1	Z1	X2	Y2	Z2	X3	Y3	Z3	X4	Y4	Z4	X5	Y5	Z5	X6	Y6	Z6	X7	Y7	Z7	X8	Y8	Z8	X9	Y9	Z9	X10	Y10	Z10	X11	Y11	Z11	X12	Y12	Z12	X13	Y13	Z13	X14	Y14	Z14	X15	Y15	Z15	X16	Y16	Z16	X17	Y17	Z17	X18	Y18	Z18	X19	Y19	Z19	X20	Y20	Z20	X21	Y21	Z21	X22	Y22	Z22	X23	Y23	Z23	X24	Y24	Z24	X25	Y25	Z25	X26	Y26	Z26	X27	Y27	Z27	
231	5.133333333333334	0.38001485443674315	0.5862115283326045	0.6419363657815117	0.3473710294385595	0.7064405232245258	1.0865195663828815	0.3382531636376895	0.8673107720787708	1.5154175740865536	0.2854122954133181	0.6572441679969561	1.531962033600854	0.3459836937089206	0.7220454815709827	1.5616980711249766	0.3273518399604201	0.9841783821414183	1.5930468715015527	0.16813345019025983	0.6580896068761228	0.6464218875426191	0.17004293405550625	0.7637245071029451	1.0830993101426667	0.15271350104583686	0.8839035605745167	1.512428484823111	0.15397688336374812	0.6758269728042031	1.5281950333549426	0.10158185147325585	0.755941195568882	1.5408891574103412	0.17335790720008648	0.9359890270130546	1.5693088132227788	0.26330479626264663	0.3873852231156463	0.09233044681536355	0.2441006751365257	0.2696231780480882	-0.13326511814869116	0.2493426754238488	0.23805177509047346	0.0053245320487673355	0.43031267988658073	0.4158708047525295	0.1824318972899129	0.5080284221982899	0.5265373313952147	0.4504735811941401	0.4837387644881037	0.5114808061185546	0.7012550536159169	0.4107306807095694	0.5297017383333812	0.8286685170120454	0.44111546916274	0.561251587155671	0.8804283805220205	0.47671179638443467	0.5973302983170573	0.8787416791552936	0.12384219017516719	0.4809826627355567	0.17984821269669338	0.10614655141041665	0.5987338459705412	0.42859433583853146	0.05609306948280179	0.6977552342620092	0.6785084268990046	0.05481724780147432	0.7267665604863579	0.8063647633838794	0.04026943323315822	0.7342311573471582	0.83282341858441	0.03429221756712662	0.7381421697765844	0.809409883455135
232	5.155555555555556	0.3803414011319928	0.5900766998533937	0.6422560275805234	0.34829196740955826	0.7094654933457887	1.0851550261326104	0.3382859534363208	0.8670009644839324	1.5152813043711357	0.2862079594867719	0.6623292736388575	1.5353527355484355	0.34598062264555834	0.7229014960246074	1.5620595731948461	0.3265049549920478	0.984910118517581	1.5953087283203553	0.16639971249408173	0.657612242883293	0.6430189785272771	0.16619947899394938	0.7638856327213059	1.0826669211182256	0.15278393013229025	0.8833305679787525	1.51063128479383	0.15361100715089707	0.688489869025958	1.5328253501157225	0.10179827590194925	0.7573124195315583	1.543407146420959	0.17182214309663602	0.9427707128009855	1.5696927876714857	0.2633250374488998	0.39590615958775816	0.09127230847946166	0.24892213550471803	0.2794869695318035	-0.13568864677429757	0.2516859477835102	0.23991467194466454	0.0020686695858393805	0.43106666230698476	0.4261178117675627	0.17941546700914593	0.5103520250455444	0.5379178317522416	0.45127885096287856	0.48360912542211254	0.5126179768515918	0.7003189580437731	0.4129130376300043	0.5258365047859437	0.8286899371701384	0.4469442297517445	0.5480722458053766	0.8780760119596628	0.48439000941766397	0.5621856524085476	0.8681991162391185	0.12384169622141099	0.48120870038871866	0.17867661163335535	0.10346943848660066	0.5955735673878412	0.4282416600450788	0.05199880603426855	0.6870753555330369	0.6713555292818651	0.04981886990308384	0.718953022225332	0.798351652408449	0.035519470613452356	0.7296389872242357	0.8254775396454878	0.029917069786409175	0.7385835628600108	0.8010733078563936
233	5.177777777777778	0.38034682515188456	0.5902845074317374	0.6417048298088726	0.3498913244286162	0.713409436101417	1.083482902843934	0.33948375913929346	0.8704148658110541	1.516486384483441	0.2859666703837594	0.6646518534421312	1.5385796469921593	0.34569851337837615	0.7237538687011122	1.5637965210821114	0.3258996472541833	0.9901824397693206	1.5947805683410783	0.1642769988922283	0.6571285828961992	0.6397167663626363	0.16266019557610448	0.7640086131638015	1.0826663215493622	0.15287698483211493	0.8832166379766994	1.508841755296685	0.15306482311012465	0.6977990102300636	1.536353240722178	0.1019314733844182	0.7582107248752521	1.5451330280364517	0.17143540997848208	0.9475415057578402	1.569705919476339	0.26433716540637076	0.4050567289494198	0.09140258206604625	0.25385371089731	0.29329697549154066	-0.1383274776818041	0.2533580568895323	0.24421549346110097	-0.0007876504820736202	0.4314618732571563	0.43406435115030695	0.17680413986698149	0.5129798553484006	0.5460612922104311	0.45240981449724293	0.48313732022951617	0.512624551934874	0.6988160653883865	0.4109449855618586	0.5173667986215906	0.825590954279892	0.44622415876675736	0.5246956488274812	0.8720008507372523	0.4895730961908581	0.5354711975082339	0.8606465023540684	0.1237456924701848	0.48537653108386375	0.17857401409297757	0.09825314551128354	0.5978085909786712	0.426910452884191	0.04687071296813652	0.6809048683576835	0.6683629621516823	0.04591937160220165	0.7136062175307244	0.7957697121582431	0.027571235186099535	0.7116580677776206	0.8204338810947152	0.020031451038420044	0.7381329381239745	0.797131952640292
234	5.2	0.38068922737280353	0.5936531758449737	0.6416164468739066	0.35224481650584555	0.7166795448727887	1.0824005615805965	0.3414552802484927	0.877870090083358	1.5191603703805205	0.28546233523646053	0.6639884769556725	1.539485479234347	0.34547282252354017	0.723975899318257	1.5659684277527792	0.3256559703179939	0.9984865064970105	1.5923781372560262	0.1624858202576857	0.6570833141882235	0.6371872753138057	0.1609273540324046	0.7640302880027994	1.0827266738436157	0.15351230533187	0.8840126859510384	1.5085596668206909	0.15297895883997892	0.6993127092216627	1.537181724034737	0.1019460441323621	0.7585331544426144	1.5454739338210348	0.17201312432794266	0.9494785569367731	1.570034229745648	0.2660691314382873	0.40966776500651164	0.09071119678293793	0.25616153428929345	0.3066584017694566	-0.14117576284708336	0.2540376023847316	0.2506769679683801	-0.00325082473098482	0.43308785770503866	0.44252207102260654	0.17543391499213418	0.5154067774475672	0.5524591858702406	0.45267083046488765	0.4831472384516098	0.5128008105064885	0.6964654702348895	0.40704636164770724	0.5103299864767844	0.8209764034931564	0.4408832169118274	0.5061013158564712	0.8654982568934793	0.48957213587289095	0.5298500427073263	0.8591480961830323	0.12349654629577017	0.4910903664891534	0.17740816574684384	0.08938458921819163	0.6108392942895767	0.4254384104149467	0.04103075169801173	0.6760137699308697	0.668139499985972	0.04017425082682848	0.7078344748695424	0.797858282723603	0.012075496767263522	0.6845619734979892	0.8172884299726411	0.003332795956761659	0.7369939775408934	0.7978189842615958
235	5.222222222222222	0.37950893192948815	0.5956598094393066	0.642112107983474	0.354373683895718	0.7181236668027605	1.0821601095829187	0.3428059460616094	0.8821303577584886	1.5206711352285303	0.2847097627934212	0.659833930669108	1.5365720817073483	0.345394217178011	0.7235523581543402	1.5656668597323078	0.3250657389671593	1.0038432513948599	1.590674965092988	0.1616084448327803	0.6573276994259569	0.6361949059772725	0.1598420422740651	0.7639748662565762	1.0826697529595741	0.15422283616982946	0.8847216464944181	1.5089496857047182	0.15312142418945407	0.6981120371368925	1.537082238082261	0.10192361154744872	0.75877289733108	1.5453647498516585	0.17248221306869693	0.9508055179336382	1.5706214225606074	0.2672587240126034	0.41019890047226515	0.0889978299327512	0.2557650053508212	0.3155942841128354	-0.14304596105081901	0.2539964251645148	0.25845405365491386	-0.005607839920180778	0.4355449869930612	0.4534990164198983	0.17583238641552243	0.5167506028599095	0.5562924816851116	0.45238889530281723	0.4835516146565173	0.5132854337299895	0.6947970915835584	0.40330636864313274	0.5067201208594352	0.8183697156540324	0.4340218941485664	0.4989690479150569	0.8611219878307492	0.4891281413191862	0.530990420236179	0.8593443759337979	0.12333123875667272	0.49380550808545354	0.17459487767516252	0.08004953648241304	0.6270073362586754	0.4248009037172758	0.03453623773531597	0.6636399248289332	0.6687027887509727	0.030384435050873355	0.6932580641241548	0.7995661772661857	-0.00733137251541527	0.6628519331062408	0.8152795198551936	-0.014862961749628794	0.735847839982493	0.79867873420698
236	5.2444444444444445	0.3753222475187733	0.5892951763073354	0.6419555938015821	0.35536727956879977	0.7188045320665994	1.0825159452889221	0.3431455432523423	0.8787999394377061	1.5194199749503396	0.2835155502915442	0.6536629043631066	1.531535721966183	0.34458267745273674	0.7229614142845162	1.5619868836269464	0.3244861049692277	1.004286749407777	1.5901041909223042	0.16120666469977207	0.6556828852124529	0.6362239774359819	0.1583108865137143	0.7638369276855426	1.0825145848644924	0.15430284311066542	0.884180311219663	1.5089286485827742	0.15304168383821942	0.6975200669867666	1.5362913767427535	0.10190555103284629	0.7589989249328017	1.5453690250688235	0.17249291956184704	0.9520827351137247	1.571127651414801	0.26735176376609254	0.4093117070098624	0.08691371302376169	0.2553119043842417	0.3209210246848323	-0.14332738738689282	0.25404161658062663	0.26540822437668443	-0.0076900416673391795	0.4371149377221129	0.4614306862888993	0.17733193300136524	0.5166978978646153	0.5574709262549269	0.4526546498848423	0.48321751123074663	0.5126110748083853	0.6942193749547264	0.4009603927103863	0.5046173023796212	0.8179867671873197	0.42673909428835066	0.49278361976048074	0.858485507908388	0.49102080040083984	0.5299291714568825	0.8588064549658261	0.12373264286885634	0.4941478835686415	0.1711973799599265	0.07498465716688123	0.6354593840361086	0.42485287047886244	0.02625912947767655	0.642745745852839	0.6684945711632275	0.016362122264769983	0.6657303469247438	0.7965507702298553	-0.023320900851483146	0.6583688865572899	0.8142329476698942	-0.029562120598325154	0.7318339451012582	0.7971543853732194
